<svg width="277" height="55" viewBox="0 0 277 55" fill="none" xmlns="http://www.w3.org/2000/svg">
<path fill-rule="evenodd" clip-rule="evenodd" d="M35.1212 16.0673C32.8612 14.5564 30.2041 13.75 27.486 13.75V0C32.9222 0 38.2364 1.61285 42.7564 4.63459C47.2765 7.65632 50.7994 11.9512 52.8798 16.9762C54.9601 22.0011 55.5044 27.5305 54.4439 32.865C53.3834 38.1994 50.7656 43.0995 46.9215 46.9454C43.0776 50.7914 38.18 53.4105 32.8483 54.4716C27.5165 55.5327 21.9899 54.988 16.9675 52.9067C11.9452 50.8252 7.65242 47.3006 4.63223 42.7782C1.61203 38.2558 0 32.939 0 27.5H13.743C13.743 30.2195 14.549 32.8779 16.0591 35.1391C17.5692 37.4003 19.7156 39.1626 22.2268 40.2034C24.738 41.2441 27.5013 41.5163 30.1671 40.9857C32.833 40.4553 35.2817 39.1457 37.2038 37.2228C39.1258 35.2997 40.4347 32.8497 40.9649 30.1825C41.4952 27.5153 41.2231 24.7506 40.1829 22.2382C39.1427 19.7256 37.3813 17.5781 35.1212 16.0673Z" fill="white"/>
<path fill-rule="evenodd" clip-rule="evenodd" d="M13.743 7.26678e-06C13.743 1.80568 13.3875 3.59368 12.6969 5.26191C12.0062 6.93013 10.9939 8.44592 9.71777 9.72273C8.44162 10.9995 6.92661 12.0124 5.25922 12.7034C3.59184 13.3944 1.80475 13.75 6.00721e-07 13.75L0 27.5C3.60951 27.5 7.18368 26.7887 10.5185 25.4067C13.8532 24.0247 16.8833 21.999 19.4355 19.4454C21.9878 16.8919 24.0125 13.8603 25.3938 10.5238C26.7751 7.18734 27.486 3.61135 27.486 0L13.743 7.26678e-06Z" fill="white"/>
<path d="M172.638 19.8722H165.97V41.0641H172.638V19.8722Z" fill="white"/>
<path d="M166.712 15.9041C167.409 16.6018 168.28 16.9506 169.326 16.9506C170.372 16.9506 171.23 16.6018 171.898 15.9041C172.567 15.1774 172.901 14.3052 172.901 13.2878C172.901 12.2413 172.567 11.3692 171.898 10.6715C171.23 9.97383 170.372 9.625 169.326 9.625C168.28 9.625 167.409 9.97383 166.712 10.6715C166.043 11.3692 165.709 12.2413 165.709 13.2878C165.709 14.3052 166.043 15.1774 166.712 15.9041Z" fill="white"/>
<path d="M70.304 41.0641V10.2791H77.1465V35.0467H90.788V41.0641H70.304Z" fill="white"/>
<path fill-rule="evenodd" clip-rule="evenodd" d="M103.11 41.5437C100.931 41.5437 98.9555 41.0641 97.183 40.1048C95.4397 39.1164 94.0596 37.7792 93.0427 36.0931C92.0258 34.407 91.5173 32.5175 91.5173 30.4245C91.5173 28.3315 92.0258 26.4565 93.0427 24.7995C94.0596 23.1425 95.4397 21.8343 97.183 20.8751C98.9263 19.8866 100.902 19.3925 103.11 19.3925C105.318 19.3925 107.294 19.8722 109.037 20.8314C110.781 21.7907 112.161 23.1135 113.178 24.7995C114.195 26.4565 114.703 28.3315 114.703 30.4245C114.703 32.5175 114.195 34.407 113.178 36.0931C112.161 37.7792 110.781 39.1164 109.037 40.1048C107.294 41.0641 105.318 41.5437 103.11 41.5437ZM103.11 35.4827C104.069 35.4827 104.912 35.2792 105.638 34.8722C106.364 34.4362 106.917 33.8403 107.294 33.0844C107.701 32.2996 107.904 31.4128 107.904 30.4245C107.904 29.4361 107.701 28.5786 107.294 27.8519C106.887 27.096 106.321 26.5147 105.594 26.1077C104.897 25.6715 104.069 25.4536 103.11 25.4536C102.181 25.4536 101.353 25.6715 100.626 26.1077C99.8997 26.5147 99.3331 27.096 98.9263 27.8519C98.5195 28.6077 98.3163 29.4797 98.3163 30.4681C98.3163 31.4274 98.5195 32.2996 98.9263 33.0844C99.3331 33.8403 99.8997 34.4362 100.626 34.8722C101.353 35.2792 102.181 35.4827 103.11 35.4827Z" fill="white"/>
<path fill-rule="evenodd" clip-rule="evenodd" d="M119.984 49.349C121.757 50.1629 123.805 50.5699 126.13 50.5699C128.396 50.5699 130.415 50.1193 132.187 49.2181C133.96 48.317 135.354 47.0671 136.371 45.4682C137.388 43.8694 137.897 41.9799 137.897 39.7995V19.8722H131.359V21.296C130.873 20.8865 130.321 20.5428 129.703 20.2646C128.57 19.7123 127.277 19.436 125.824 19.436C123.878 19.436 122.149 19.9012 120.638 20.8314C119.127 21.7326 117.936 22.9826 117.064 24.5814C116.192 26.1513 115.757 27.9245 115.757 29.9013C115.757 31.849 116.192 33.6222 117.064 35.221C117.936 36.8199 119.127 38.0845 120.638 39.0147C122.149 39.9449 123.878 40.41 125.824 40.41C127.248 40.41 128.541 40.1339 129.703 39.5816C130.266 39.314 130.775 38.9987 131.229 38.6356V39.974C131.229 41.4565 130.749 42.6048 129.79 43.4188C128.861 44.2328 127.568 44.6397 125.912 44.6397C124.575 44.6397 123.427 44.4071 122.468 43.942C121.539 43.477 120.696 42.7937 119.941 41.8925L115.844 45.9914C116.861 47.4449 118.241 48.5642 119.984 49.349ZM129.485 33.8693C128.817 34.2763 128.018 34.4798 127.088 34.4798C126.159 34.4798 125.345 34.2763 124.648 33.8693C123.979 33.4623 123.456 32.9099 123.079 32.2123C122.701 31.4856 122.512 30.7152 122.512 29.9013C122.512 29.0291 122.701 28.2443 123.079 27.5466C123.456 26.8489 123.994 26.2966 124.691 25.8896C125.388 25.4826 126.188 25.2791 127.088 25.2791C128.018 25.2791 128.817 25.4826 129.485 25.8896C130.183 26.2966 130.706 26.8489 131.054 27.5466C131.432 28.2443 131.621 29.0291 131.621 29.9013C131.621 30.7733 131.432 31.5582 131.054 32.2559C130.706 32.9245 130.183 33.4623 129.485 33.8693Z" fill="white"/>
<path fill-rule="evenodd" clip-rule="evenodd" d="M151.93 41.5437C149.751 41.5437 147.774 41.0641 146.003 40.1048C144.259 39.1164 142.879 37.7792 141.862 36.0931C140.845 34.407 140.337 32.5175 140.337 30.4245C140.337 28.3315 140.845 26.4565 141.862 24.7995C142.879 23.1425 144.259 21.8343 146.003 20.8751C147.746 19.8866 149.722 19.3925 151.93 19.3925C154.137 19.3925 156.114 19.8722 157.856 20.8314C159.6 21.7907 160.98 23.1135 161.997 24.7995C163.014 26.4565 163.523 28.3315 163.523 30.4245C163.523 32.5175 163.014 34.407 161.997 36.0931C160.98 37.7792 159.6 39.1164 157.856 40.1048C156.114 41.0641 154.137 41.5437 151.93 41.5437ZM151.93 35.4827C152.888 35.4827 153.731 35.2792 154.458 34.8722C155.183 34.4362 155.736 33.8403 156.114 33.0844C156.521 32.2996 156.724 31.4128 156.724 30.4245C156.724 29.4361 156.521 28.5786 156.114 27.8519C155.707 27.096 155.141 26.5147 154.414 26.1077C153.717 25.6715 152.888 25.4536 151.93 25.4536C151 25.4536 150.171 25.6715 149.446 26.1077C148.719 26.5147 148.152 27.096 147.746 27.8519C147.339 28.6077 147.135 29.4797 147.135 30.4681C147.135 31.4274 147.339 32.2996 147.746 33.0844C148.152 33.8403 148.719 34.4362 149.446 34.8722C150.171 35.2792 151 35.4827 151.93 35.4827Z" fill="white"/>
<path fill-rule="evenodd" clip-rule="evenodd" d="M188.665 41.5001C187.243 41.5001 185.935 41.224 184.743 40.6717C184.116 40.381 183.55 40.034 183.045 39.6305V50.0031H176.463V19.8722H183.131V21.3348C183.615 20.9389 184.152 20.5967 184.743 20.3082C185.935 19.7267 187.243 19.436 188.665 19.436C190.671 19.436 192.443 19.9158 193.983 20.8751C195.552 21.8343 196.772 23.1425 197.644 24.7995C198.545 26.4565 198.995 28.346 198.995 30.4681C198.995 32.5903 198.545 34.4798 197.644 36.1368C196.772 37.7938 195.552 39.1018 193.983 40.0612C192.443 41.0205 190.671 41.5001 188.665 41.5001ZM187.446 35.4827C188.404 35.4827 189.233 35.2646 189.93 34.8286C190.657 34.3926 191.223 33.7965 191.63 33.0408C192.037 32.285 192.24 31.4274 192.24 30.4681C192.24 29.4797 192.037 28.6077 191.63 27.8519C191.223 27.096 190.657 26.5147 189.93 26.1077C189.233 25.6715 188.419 25.4536 187.489 25.4536C186.56 25.4536 185.731 25.6715 185.006 26.1077C184.308 26.5147 183.756 27.096 183.35 27.8519C182.943 28.6077 182.739 29.4797 182.739 30.4681C182.739 31.4274 182.928 32.285 183.306 33.0408C183.712 33.7965 184.279 34.3926 185.006 34.8286C185.731 35.2646 186.545 35.4827 187.446 35.4827Z" fill="white"/>
<path d="M205.521 41.1077C206.742 41.4275 207.976 41.5873 209.225 41.5873C211.869 41.5873 213.961 40.9769 215.501 39.7559C217.069 38.5351 217.854 36.8926 217.854 34.8286C217.854 33.4914 217.608 32.4158 217.113 31.6019C216.62 30.7589 215.981 30.0902 215.196 29.5961C214.412 29.1019 213.583 28.7093 212.712 28.4186C211.84 28.128 211.012 27.8809 210.228 27.6774C209.443 27.4739 208.804 27.2414 208.31 26.9797C207.816 26.718 207.569 26.3692 207.569 25.9332C207.569 25.5262 207.759 25.2209 208.135 25.0174C208.513 24.7849 209.079 24.6687 209.835 24.6687C210.62 24.6687 211.418 24.8285 212.232 25.1483C213.074 25.468 213.83 26.0205 214.498 26.8054L218.29 22.9681C217.332 21.7471 216.083 20.8314 214.542 20.221C213.032 19.5815 211.376 19.2617 209.574 19.2617C207.86 19.2617 206.364 19.5524 205.086 20.1337C203.806 20.7152 202.818 21.5146 202.121 22.532C201.424 23.5203 201.075 24.6978 201.075 26.0641C201.075 27.3431 201.323 28.4042 201.816 29.2472C202.309 30.0611 202.95 30.7007 203.733 31.1658C204.518 31.6309 205.347 31.9943 206.218 32.2559C207.089 32.5175 207.918 32.7646 208.703 32.9973C209.486 33.2008 210.127 33.4478 210.62 33.7385C211.143 34.0002 211.405 34.3926 211.405 34.9158C211.405 35.3228 211.186 35.6425 210.75 35.8751C210.344 36.1076 209.749 36.224 208.964 36.224C207.83 36.224 206.784 36.0205 205.826 35.6135C204.867 35.1775 204.038 34.5815 203.342 33.8257L199.55 37.6629C200.277 38.4478 201.148 39.1456 202.165 39.7559C203.211 40.3373 204.33 40.7879 205.521 41.1077Z" fill="white"/>
<path d="M230.014 41.5437C228.068 41.5437 226.339 41.1513 224.829 40.3664C223.346 39.5524 222.185 38.4478 221.342 37.0524C220.498 35.628 220.078 34.0002 220.078 32.1687V19.8722H226.746V32.0815C226.746 32.8082 226.861 33.4333 227.095 33.9565C227.356 34.4798 227.734 34.8868 228.227 35.1775C228.722 35.4681 229.317 35.6135 230.014 35.6135C231.002 35.6135 231.787 35.3082 232.368 34.6977C232.95 34.0582 233.24 33.1862 233.24 32.0815V19.8722H239.908V32.1251C239.908 33.9856 239.487 35.628 238.643 37.0524C237.801 38.4478 236.64 39.5524 235.157 40.3664C233.675 41.1513 231.961 41.5437 230.014 41.5437Z" fill="white"/>
<path d="M249.891 19.8722H243.222V41.0641H249.891V28.6803C249.891 27.9536 250.036 27.3431 250.326 26.8489C250.646 26.3548 251.068 25.9768 251.591 25.7153C252.114 25.4244 252.709 25.2791 253.377 25.2791C254.336 25.2791 255.135 25.5844 255.774 26.1949C256.443 26.7762 256.777 27.6048 256.777 28.6803V41.0641H263.445V28.6803C263.445 27.9536 263.591 27.3431 263.881 26.8489C264.201 26.3548 264.622 25.9768 265.145 25.7153C265.668 25.4244 266.264 25.2791 266.932 25.2791C267.891 25.2791 268.69 25.5844 269.329 26.1949C269.997 26.7762 270.331 27.6048 270.331 28.6803V41.0641H277V27.939C277 26.1658 276.622 24.6542 275.866 23.4042C275.139 22.125 274.137 21.1512 272.859 20.4827C271.61 19.7849 270.171 19.436 268.544 19.436C266.888 19.436 265.391 19.7995 264.055 20.5263C263.187 20.9892 262.428 21.5868 261.778 22.3189C261.172 21.5531 260.436 20.9265 259.566 20.439C258.404 19.7704 257.082 19.436 255.601 19.436C254.031 19.436 252.623 19.7704 251.373 20.439C250.829 20.7171 250.336 21.0503 249.891 21.4385V19.8722Z" fill="white"/>
</svg>
