<svg width="12" height="18" viewBox="0 0 12 18" fill="none" xmlns="http://www.w3.org/2000/svg">
<path fill-rule="evenodd" clip-rule="evenodd" d="M1.07731 4.66444C1.07731 2.08838 3.31771 0 6.08146 0C8.84521 0 11.0856 2.08838 11.0856 4.66444C11.0856 7.24057 8.84521 9.32908 6.08146 9.32908C3.31771 9.32908 1.07731 7.24057 1.07731 4.66444ZM4.01286 4.66451C4.01286 5.72939 4.93902 6.59275 6.08146 6.59275C7.2239 6.59275 8.15006 5.72939 8.15006 4.66451C8.15006 3.59963 7.2239 2.73633 6.08146 2.73633C4.93902 2.73633 4.01286 3.59963 4.01286 4.66451Z" fill="#0C1518"/>
<path d="M7.84814 13.0406C9.85151 12.6602 11.052 11.7758 11.1155 11.7284C11.7018 11.2902 11.7959 10.492 11.3258 9.94546C10.8557 9.39904 9.99946 9.31126 9.41309 9.74942C9.40071 9.75876 8.12027 10.6743 6.0135 10.6757C3.9068 10.6743 2.5993 9.75876 2.58691 9.74942C2.00054 9.31126 1.14427 9.39904 0.674205 9.94546C0.204068 10.492 0.298238 11.2902 0.884459 11.7284C0.948839 11.7765 2.19891 12.6839 4.25842 13.0553L1.38811 15.8514C0.866485 16.3556 0.882168 17.1585 1.42313 17.6448C1.68717 17.8821 2.02747 18 2.36749 18C2.72397 18 3.0801 17.8702 3.34707 17.612L6.01357 14.9644L8.9494 17.6292C9.48134 18.1242 10.3427 18.1234 10.8736 17.6278C11.4046 17.1321 11.4039 16.3291 10.8721 15.8342L7.84814 13.0406Z" fill="#0C1518"/>
</svg>
