<svg width="20" height="16" viewBox="0 0 20 16" fill="none" xmlns="http://www.w3.org/2000/svg">
<path d="M2.03836 6.95746C6.99408 4.84063 10.2987 3.44509 11.9521 2.77083C16.6731 0.845685 17.6541 0.511267 18.2935 0.500107C18.4341 0.497796 18.7485 0.531965 18.9522 0.693996C19.1242 0.830811 19.1715 1.01563 19.1941 1.14535C19.2168 1.27506 19.245 1.57056 19.2226 1.80145C18.9667 4.43683 17.8598 10.8322 17.2966 13.7839C17.0583 15.0328 16.5891 15.4516 16.1348 15.4926C15.1476 15.5816 14.398 14.8529 13.4418 14.2385C11.9457 13.2769 11.1004 12.6783 9.64811 11.74C7.96972 10.6557 9.05775 10.0597 10.0143 9.08566C10.2646 8.83076 14.6142 4.95196 14.6984 4.60009C14.7089 4.55608 14.7187 4.39204 14.6193 4.30543C14.5199 4.21881 14.3732 4.24843 14.2673 4.27199C14.1172 4.30538 11.7271 5.85425 7.09679 8.91859C6.41835 9.37533 5.80384 9.59787 5.25326 9.58621C4.64628 9.57335 3.47871 9.24974 2.61074 8.97313C1.54614 8.63385 0.70002 8.45447 0.773699 7.87827C0.812075 7.57814 1.23363 7.27121 2.03836 6.95746Z" fill="#0C1518"/>
</svg>
